HIERARCHY
ROOT Hips
{
	OFFSET 0.00000 0.00000 0.00000
	CHANNELS 6 Xposition Yposition Zposition Yrotation Zrotation Xrotation 
	JOINT Lumbar
	{
		OFFSET 0 0 0
		CHANNELS 3 Zrotation Xrotation Yrotation
		JOINT Neck
		{
			OFFSET 0.00 0.2701 0.00
			CHANNELS 3 Zrotation Xrotation Yrotation
			End Site
			{
				OFFSET 0.00 0.1379 0.00
			}
		}
		JOINT RightShoulder
		{
			OFFSET 0.0119 0.2289 0.1181
			CHANNELS 3 Zrotation Xrotation Yrotation
			JOINT RightElbow
			{
				OFFSET 0.00 -0.1475 0.00
				CHANNELS 2 Zrotation Yrotation
				JOINT RightWrist
				{
					OFFSET 0.00 -0.1605 0.00
					CHANNELS 2 Zrotation Xrotation
					End Site
					{
						OFFSET 0.0040 -0.1068 0.0006
					}
				}
			}
		}
		JOINT LeftShoulder
		{
			OFFSET 0.0119 0.2289 -0.1181
			CHANNELS 3 Zrotation Xrotation Yrotation
			JOINT LeftElbow
			{
				OFFSET 0.00 -0.1475 0.00
				CHANNELS 2 Zrotation Yrotation
				JOINT LeftWrist
				{
					OFFSET 0.00 -0.1605 0.00
					CHANNELS 2 Zrotation Xrotation
					End Site
					{
						OFFSET 0.0040 -0.1068 -0.0006
					}
				}
			}
		}
	}
	JOINT RightHip
	{
		OFFSET 0.0316 -0.0424 0.0458
		CHANNELS 3 Zrotation Xrotation Yrotation
		JOINT RightKnee
		{
			OFFSET 0.00 -0.2438 0.00
			CHANNELS 1 Zrotation
			JOINT RightAnkle
			{
				OFFSET 0.00 -0.2449 0.00
				CHANNELS 3 Zrotation Xrotation Yrotation
				End Site
				{
					OFFSET 0.1237 -0.0542 0.0051
				}
			}
		}
	}
	JOINT LeftHip
	{
		OFFSET 0.0316 -0.0424 -0.0458
		CHANNELS 3 Zrotation Xrotation Yrotation
		JOINT LeftKnee
		{
			OFFSET 0.00 -0.2438 0.00
			CHANNELS 1 Zrotation
			JOINT LeftAnkle
			{
				OFFSET 0.00 -0.2449 0.00
				CHANNELS 3 Zrotation Xrotation Yrotation
				End Site
				{
					OFFSET 0.1237 -0.0542 -0.0051
				}
			}
		}
	}
}
MOTION
Frames: 13
Frame Time: 0.02
-0.9419 -0.05812 0.20392 539.3896 -45.38209 -1.98164 6.00251 5.11147 -1.80015 -45.92457 -20.36998 -0.83072 -51.15048 -32.48138 4.92246 93.36925 75.13444 3.12287 -7.05492 -26.31909 21.68846 6.37329 69.04749 -82.00036 -4.21947 5.61435 72.84667 -7.578 -4.07761 -62.44689 -6.44296 -4.72949 -3.11416 79.17845 10.19746 -7.29516 -67.34559 -9.24789 4.98758 3.43987
-0.93656 -0.0646 0.20796 539.22426 -45.27017 -1.75183 5.21218 5.37047 -2.40192 -46.52342 -21.71703 -0.83072 -51.60249 -32.49463 5.17536 93.95948 75.81532 2.76128 -6.76588 -24.66466 22.46064 6.38452 67.97274 -86.11469 -6.04621 6.43484 74.84359 -8.26945 -3.2035 -65.16059 -6.39472 -4.69561 -3.09566 80.6343 10.09081 -6.70227 -69.59362 -8.98671 4.99078 3.42526
-0.93133 -0.07146 0.21192 539.09593 -44.96078 -1.52336 4.35831 5.63292 -2.89368 -47.29882 -23.15183 -0.83072 -51.95175 -32.44589 5.65612 94.38927 76.99632 2.22693 -6.24826 -22.66156 23.31292 6.25785 66.67021 -91.29244 -8.31882 7.42693 76.58901 -8.97462 -2.43994 -67.78579 -6.33677 -4.64779 -3.07056 82.17636 10.22511 -5.53304 -72.17313 -8.75929 4.97045 3.40246
-0.92608 -0.07817 0.2159 538.94908 -44.71386 -1.29568 3.53325 5.87461 -3.41977 -47.99185 -24.4796 -0.83072 -52.33691 -32.40759 6.01733 94.86483 77.90929 1.7786 -5.86045 -20.83963 24.12008 6.20194 65.51838 -95.74606 -10.30795 8.29226 78.41511 -9.65754 -1.61331 -70.44401 -6.28448 -4.60742 -3.04901 83.64442 10.25408 -4.63951 -74.59929 -8.51703 4.9604 3.383
-0.9207 -0.0848 0.21998 538.81359 -44.58195 -1.06099 2.70392 6.19718 -4.01705 -48.69583 -26.09435 -0.83072 -52.77262 -32.43969 6.44651 95.45916 78.98423 1.3034 -5.36824 -18.91351 24.97276 6.10477 64.16491 -101.18707 -12.62621 9.35886 80.38502 -10.4022 -0.83277 -73.13579 -6.22758 -4.56306 -3.02558 85.26465 10.25328 -3.69135 -77.05022 -8.26788 4.95064 3.36381
-0.91561 -0.09167 0.22381 538.66245 -44.16331 -0.84221 1.87252 6.35336 -4.43929 -49.41809 -27.13326 -0.83072 -53.07505 -32.31352 6.78737 95.76649 79.84705 0.84122 -5.03891 -17.12403 25.74477 6.06276 63.17608 -104.86206 -14.37773 10.05347 81.99381 -11.02705 0.00968 -75.73359 -6.17752 -4.52302 -3.0041 86.58532 10.37464 -2.72073 -79.52081 -8.04315 4.93538 3.34273
-0.91125 -0.09916 0.22701 538.44901 -43.00472 -0.66019 1.02161 6.03389 -4.38863 -50.14905 -26.5293 -0.83072 -53.05337 -31.74861 6.8384 95.31711 79.96847 0.45853 -5.19244 -15.80563 26.29287 6.21456 63.27628 -103.0633 -14.35114 9.61972 82.67905 -11.2756 1.10942 -78.11496 -6.15149 -4.50352 -2.99262 87.07024 10.79603 -1.80488 -81.99256 -7.87505 4.90906 3.31726
-0.90717 -0.10687 0.22995 538.21983 -41.56358 -0.49557 0.17663 5.54929 -4.16764 -50.89194 -25.34697 -0.83072 -52.89605 -31.0302 6.79176 94.58299 79.8656 0.09442 -5.51939 -14.63596 26.75233 6.42514 63.74638 -99.50925 -13.75706 8.81601 83.00616 -11.41016 2.26438 -80.39983 -6.13218 -4.48795 -2.98282 87.24724 11.33004 -0.89029 -84.46529 -7.73151 4.87846 3.29054
-0.90297 -0.11447 0.23298 538.00352 -40.24986 -0.3274 -0.6517 5.15046 -4.03464 -51.62803 -24.45008 -0.83072 -52.78943 -30.39348 6.78234 93.9828 79.88928 -0.28022 -5.783 -13.39459 27.23964 6.6064 64.03142 -96.98472 -13.49337 8.22115 83.49051 -11.62621 3.35408 -82.71578 -6.10784 -4.467 -2.97019 87.55719 11.80028 0.01015 -86.91849 -7.57898 4.85114 3.26538
-0.89874 -0.12214 0.23612 537.76386 -38.93434 -0.1405 -1.56434 4.70745 -3.85368 -52.37557 -23.46424 -0.83072 -52.72994 -29.70389 6.80753 93.36412 79.82958 -0.65372 -5.98021 -12.16036 27.78346 6.7986 64.38291 -93.53517 -12.9455 7.46285 83.99362 -11.72189 4.60726 -85.08608 -6.09121 -4.46031 -2.9658 87.90212 12.3317 0.99385 -89.46661 -7.41822 4.8175 3.23586
-0.89464 -0.12969 0.23896 537.56934 -37.55686 0.00282 -2.29862 4.31601 -3.73301 -53.10049 -22.52103 -0.83072 -52.53583 -29.08916 6.73897 92.71071 79.87971 -1.02078 -6.35135 -10.94849 28.18607 6.97766 64.68319 -91.56087 -12.84102 6.95176 84.3706 -12.03535 5.53734 -87.31705 -6.06063 -4.42559 -2.94507 88.09693 12.75947 1.79497 -91.80968 -7.28023 4.79609 3.21509
-0.89075 -0.13696 0.24112 537.49668 -36.08864 0.03407 -2.54482 4.11757 -3.82564 -53.75261 -21.87211 -0.83073 -52.05189 -28.71578 6.39506 92.09846 80.32174 -1.39289 -7.2375 -9.78829 28.23069 7.1591 64.78371 -94.26515 -14.16705 7.23997 84.53249 -13.02689 5.53735 -89.22346 -5.9866 -4.30769 -2.87585 87.97692 12.87236 2.10178 -93.6109 -7.19713 4.8116 3.21994
-0.88698 -0.14408 0.24297 537.4711 -34.56695 0.02146 -2.61022 3.97484 -3.98435 -54.38165 -21.27953 -0.83073 -51.42925 -28.42381 5.96598 91.45018 80.87379 -1.7552 -8.28173 -8.64327 28.13333 7.31576 64.81487 -98.47797 -15.94479 7.78412 84.57234 -14.23238 5.21534 -90.98609 -5.89896 -4.16245 -2.79072 87.71124 12.87648 2.22055 -95.19904 -7.13626 4.83923 3.23342
